# xmcd
#
# Track frame offsets: 
#        183
#        15933
#        29883
#        44358
#        57408
#        71883
#        87858
#        103083
#        116508
#        132183
#        145333
#        158058
#        170358
#        180508
#        195108
#        209448
#        220683
#        234108
#        247283
#        261843
#        271783
#        286158
#        299203
#        314358
#        327783
#
# Disc length: 4554 seconds
#
# Revision: 3
# Processed by: cddbd v1.5.2PL0 Copyright (c) Steve Scherf et al.
# Submitted via: ExactAudioCopy v0.95b4
#
DISCID=7411c819
DTITLE=Smith, Bessie - The Bessie Smith Story
DYEAR=1900
DGENRE=Blues
TTITLE0=Careless love blues
TTITLE1=J. C. Holmes blues
TTITLE2=He's gone blues
TTITLE3=Nobody's blues but mine
TTITLE4=I ain't got nobody
TTITLE5=My man blues
TTITLE6=New gulf coast blues
TTITLE7=I've been mistreated and I don't like it blues
TTITLE8=Lonesome desert blues
TTITLE9=Squeeze me
TTITLE10=What's the matter now?
TTITLE11=I want every bit of it
TTITLE12=Jazzbo Brown from Memphis town
TTITLE13=The gin house blues
TTITLE14=Money blues
TTITLE15=Baby doll
TTITLE16=Hard driving papa
TTITLE17=Lost your head blues
TTITLE18=Hard time blues
TTITLE19=One and two blues
TTITLE20=Young woman's blues
TTITLE21=Preachin' the blues
TTITLE22=Back water blues
TTITLE23=After you've gone
TTITLE24=Alexander's ragtime band
EXTD=*HWREG BL 002
EXTT0=
EXTT1=
EXTT2=
EXTT3=
EXTT4=
EXTT5=
EXTT6=
EXTT7=
EXTT8=
EXTT9=
EXTT10=
EXTT11=
EXTT12=
EXTT13=
EXTT14=
EXTT15=
EXTT16=
EXTT17=
EXTT18=
EXTT19=
EXTT20=
EXTT21=
EXTT22=
EXTT23=
EXTT24=
PLAYORDER=
